<svg width="23" height="22" xmlns="http://www.w3.org/2000/svg">

 <g>
  <title>background</title>
  <rect fill="none" id="canvas_background" height="24" width="25" y="-1" x="-1"/>
 </g>
 <g>
  <title>Layer 1</title>
  <rect id="svg_1" fill="#C283F3" transform="matrix(-0.718931,0.695081,0.718931,0.695081,4.9375,15.6533) " height="1.71695" width="6.8678"/>
  <path id="svg_2" fill="#C283F3" d="m12.0969,18c-4.56649,0 -8.09998,-3.6771 -8.09998,-8c0,-4.32285 3.53349,-8 8.09998,-8c4.5665,0 8.1,3.67715 8.1,8c0,4.3229 -3.5335,8 -8.1,8zm0,2c-5.52282,0 -9.99998,-4.4772 -9.99998,-10c0,-5.52285 4.47716,-10 9.99998,-10c5.5229,0 10,4.47715 10,10c0,5.5228 -4.4771,10 -10,10z" clip-rule="evenodd" fill-rule="evenodd"/>
  <rect id="svg_4" fill="#C283F3" transform="rotate(90 43.5,0.499999493360523) " height="0.999999" width="19" x="34"/>
 </g>
</svg>